<mxfile host="Electron" modified="2024-05-03T14:01:47.864Z" agent="Mozilla/5.0 (Windows NT 10.0; Win64; x64) AppleWebKit/537.36 (KHTML, like Gecko) draw.io/24.2.5 Chrome/120.0.6099.109 Electron/28.1.0 Safari/537.36" etag="LSIUPlLl6cbLTkPAlFRj" version="24.2.5" type="device">
  <diagram name="第 1 页" id="SrxB0XY9dT65cyTwiwqH">
    <mxGraphModel dx="2074" dy="1205" grid="1" gridSize="10" guides="1" tooltips="1" connect="1" arrows="1" fold="1" page="1" pageScale="1" pageWidth="827" pageHeight="1169" math="0" shadow="0">
      <root>
        <mxCell id="0" />
        <mxCell id="1" parent="0" />
        <mxCell id="6YKw9iNjO2KrYBKUbxQq-34" value="" style="rounded=0;whiteSpace=wrap;html=1;fillColor=#ffe6cc;strokeColor=#d79b00;" vertex="1" parent="1">
          <mxGeometry x="70" y="390" width="760" height="520" as="geometry" />
        </mxCell>
        <mxCell id="6YKw9iNjO2KrYBKUbxQq-2" value="" style="shape=table;startSize=0;container=1;collapsible=0;childLayout=tableLayout;fontSize=16;fillColor=#d5e8d4;strokeColor=#82b366;" vertex="1" parent="1">
          <mxGeometry x="180" y="500" width="200" height="240" as="geometry" />
        </mxCell>
        <mxCell id="6YKw9iNjO2KrYBKUbxQq-3" value="" style="shape=tableRow;horizontal=0;startSize=0;swimlaneHead=0;swimlaneBody=0;strokeColor=inherit;top=0;left=0;bottom=0;right=0;collapsible=0;dropTarget=0;fillColor=none;points=[[0,0.5],[1,0.5]];portConstraint=eastwest;fontSize=16;" vertex="1" parent="6YKw9iNjO2KrYBKUbxQq-2">
          <mxGeometry width="200" height="40" as="geometry" />
        </mxCell>
        <mxCell id="6YKw9iNjO2KrYBKUbxQq-4" value="" style="shape=partialRectangle;html=1;whiteSpace=wrap;connectable=0;strokeColor=inherit;overflow=hidden;fillColor=none;top=0;left=0;bottom=0;right=0;pointerEvents=1;fontSize=16;" vertex="1" parent="6YKw9iNjO2KrYBKUbxQq-3">
          <mxGeometry width="40" height="40" as="geometry">
            <mxRectangle width="40" height="40" as="alternateBounds" />
          </mxGeometry>
        </mxCell>
        <mxCell id="6YKw9iNjO2KrYBKUbxQq-5" value="" style="shape=partialRectangle;html=1;whiteSpace=wrap;connectable=0;strokeColor=inherit;overflow=hidden;fillColor=none;top=0;left=0;bottom=0;right=0;pointerEvents=1;fontSize=16;" vertex="1" parent="6YKw9iNjO2KrYBKUbxQq-3">
          <mxGeometry x="40" width="40" height="40" as="geometry">
            <mxRectangle width="40" height="40" as="alternateBounds" />
          </mxGeometry>
        </mxCell>
        <mxCell id="6YKw9iNjO2KrYBKUbxQq-6" value="" style="shape=partialRectangle;html=1;whiteSpace=wrap;connectable=0;strokeColor=inherit;overflow=hidden;fillColor=none;top=0;left=0;bottom=0;right=0;pointerEvents=1;fontSize=16;" vertex="1" parent="6YKw9iNjO2KrYBKUbxQq-3">
          <mxGeometry x="80" width="40" height="40" as="geometry">
            <mxRectangle width="40" height="40" as="alternateBounds" />
          </mxGeometry>
        </mxCell>
        <mxCell id="6YKw9iNjO2KrYBKUbxQq-23" style="shape=partialRectangle;html=1;whiteSpace=wrap;connectable=0;strokeColor=inherit;overflow=hidden;fillColor=none;top=0;left=0;bottom=0;right=0;pointerEvents=1;fontSize=16;" vertex="1" parent="6YKw9iNjO2KrYBKUbxQq-3">
          <mxGeometry x="120" width="40" height="40" as="geometry">
            <mxRectangle width="40" height="40" as="alternateBounds" />
          </mxGeometry>
        </mxCell>
        <mxCell id="6YKw9iNjO2KrYBKUbxQq-28" style="shape=partialRectangle;html=1;whiteSpace=wrap;connectable=0;strokeColor=inherit;overflow=hidden;fillColor=none;top=0;left=0;bottom=0;right=0;pointerEvents=1;fontSize=16;" vertex="1" parent="6YKw9iNjO2KrYBKUbxQq-3">
          <mxGeometry x="160" width="40" height="40" as="geometry">
            <mxRectangle width="40" height="40" as="alternateBounds" />
          </mxGeometry>
        </mxCell>
        <mxCell id="6YKw9iNjO2KrYBKUbxQq-7" value="" style="shape=tableRow;horizontal=0;startSize=0;swimlaneHead=0;swimlaneBody=0;strokeColor=inherit;top=0;left=0;bottom=0;right=0;collapsible=0;dropTarget=0;fillColor=none;points=[[0,0.5],[1,0.5]];portConstraint=eastwest;fontSize=16;" vertex="1" parent="6YKw9iNjO2KrYBKUbxQq-2">
          <mxGeometry y="40" width="200" height="40" as="geometry" />
        </mxCell>
        <mxCell id="6YKw9iNjO2KrYBKUbxQq-8" value="" style="shape=partialRectangle;html=1;whiteSpace=wrap;connectable=0;strokeColor=inherit;overflow=hidden;fillColor=none;top=0;left=0;bottom=0;right=0;pointerEvents=1;fontSize=16;" vertex="1" parent="6YKw9iNjO2KrYBKUbxQq-7">
          <mxGeometry width="40" height="40" as="geometry">
            <mxRectangle width="40" height="40" as="alternateBounds" />
          </mxGeometry>
        </mxCell>
        <mxCell id="6YKw9iNjO2KrYBKUbxQq-9" value="" style="shape=partialRectangle;html=1;whiteSpace=wrap;connectable=0;strokeColor=inherit;overflow=hidden;fillColor=none;top=0;left=0;bottom=0;right=0;pointerEvents=1;fontSize=16;" vertex="1" parent="6YKw9iNjO2KrYBKUbxQq-7">
          <mxGeometry x="40" width="40" height="40" as="geometry">
            <mxRectangle width="40" height="40" as="alternateBounds" />
          </mxGeometry>
        </mxCell>
        <mxCell id="6YKw9iNjO2KrYBKUbxQq-10" value="" style="shape=partialRectangle;html=1;whiteSpace=wrap;connectable=0;strokeColor=inherit;overflow=hidden;fillColor=none;top=0;left=0;bottom=0;right=0;pointerEvents=1;fontSize=16;" vertex="1" parent="6YKw9iNjO2KrYBKUbxQq-7">
          <mxGeometry x="80" width="40" height="40" as="geometry">
            <mxRectangle width="40" height="40" as="alternateBounds" />
          </mxGeometry>
        </mxCell>
        <mxCell id="6YKw9iNjO2KrYBKUbxQq-24" style="shape=partialRectangle;html=1;whiteSpace=wrap;connectable=0;strokeColor=inherit;overflow=hidden;fillColor=none;top=0;left=0;bottom=0;right=0;pointerEvents=1;fontSize=16;" vertex="1" parent="6YKw9iNjO2KrYBKUbxQq-7">
          <mxGeometry x="120" width="40" height="40" as="geometry">
            <mxRectangle width="40" height="40" as="alternateBounds" />
          </mxGeometry>
        </mxCell>
        <mxCell id="6YKw9iNjO2KrYBKUbxQq-29" style="shape=partialRectangle;html=1;whiteSpace=wrap;connectable=0;strokeColor=inherit;overflow=hidden;fillColor=none;top=0;left=0;bottom=0;right=0;pointerEvents=1;fontSize=16;" vertex="1" parent="6YKw9iNjO2KrYBKUbxQq-7">
          <mxGeometry x="160" width="40" height="40" as="geometry">
            <mxRectangle width="40" height="40" as="alternateBounds" />
          </mxGeometry>
        </mxCell>
        <mxCell id="6YKw9iNjO2KrYBKUbxQq-11" value="" style="shape=tableRow;horizontal=0;startSize=0;swimlaneHead=0;swimlaneBody=0;strokeColor=inherit;top=0;left=0;bottom=0;right=0;collapsible=0;dropTarget=0;fillColor=none;points=[[0,0.5],[1,0.5]];portConstraint=eastwest;fontSize=16;" vertex="1" parent="6YKw9iNjO2KrYBKUbxQq-2">
          <mxGeometry y="80" width="200" height="40" as="geometry" />
        </mxCell>
        <mxCell id="6YKw9iNjO2KrYBKUbxQq-12" value="" style="shape=partialRectangle;html=1;whiteSpace=wrap;connectable=0;strokeColor=inherit;overflow=hidden;fillColor=none;top=0;left=0;bottom=0;right=0;pointerEvents=1;fontSize=16;" vertex="1" parent="6YKw9iNjO2KrYBKUbxQq-11">
          <mxGeometry width="40" height="40" as="geometry">
            <mxRectangle width="40" height="40" as="alternateBounds" />
          </mxGeometry>
        </mxCell>
        <mxCell id="6YKw9iNjO2KrYBKUbxQq-13" value="" style="shape=partialRectangle;html=1;whiteSpace=wrap;connectable=0;strokeColor=inherit;overflow=hidden;fillColor=none;top=0;left=0;bottom=0;right=0;pointerEvents=1;fontSize=16;" vertex="1" parent="6YKw9iNjO2KrYBKUbxQq-11">
          <mxGeometry x="40" width="40" height="40" as="geometry">
            <mxRectangle width="40" height="40" as="alternateBounds" />
          </mxGeometry>
        </mxCell>
        <mxCell id="6YKw9iNjO2KrYBKUbxQq-14" value="" style="shape=partialRectangle;html=1;whiteSpace=wrap;connectable=0;strokeColor=inherit;overflow=hidden;fillColor=none;top=0;left=0;bottom=0;right=0;pointerEvents=1;fontSize=16;" vertex="1" parent="6YKw9iNjO2KrYBKUbxQq-11">
          <mxGeometry x="80" width="40" height="40" as="geometry">
            <mxRectangle width="40" height="40" as="alternateBounds" />
          </mxGeometry>
        </mxCell>
        <mxCell id="6YKw9iNjO2KrYBKUbxQq-25" style="shape=partialRectangle;html=1;whiteSpace=wrap;connectable=0;strokeColor=inherit;overflow=hidden;fillColor=none;top=0;left=0;bottom=0;right=0;pointerEvents=1;fontSize=16;" vertex="1" parent="6YKw9iNjO2KrYBKUbxQq-11">
          <mxGeometry x="120" width="40" height="40" as="geometry">
            <mxRectangle width="40" height="40" as="alternateBounds" />
          </mxGeometry>
        </mxCell>
        <mxCell id="6YKw9iNjO2KrYBKUbxQq-30" style="shape=partialRectangle;html=1;whiteSpace=wrap;connectable=0;strokeColor=inherit;overflow=hidden;fillColor=none;top=0;left=0;bottom=0;right=0;pointerEvents=1;fontSize=16;" vertex="1" parent="6YKw9iNjO2KrYBKUbxQq-11">
          <mxGeometry x="160" width="40" height="40" as="geometry">
            <mxRectangle width="40" height="40" as="alternateBounds" />
          </mxGeometry>
        </mxCell>
        <mxCell id="6YKw9iNjO2KrYBKUbxQq-15" style="shape=tableRow;horizontal=0;startSize=0;swimlaneHead=0;swimlaneBody=0;strokeColor=inherit;top=0;left=0;bottom=0;right=0;collapsible=0;dropTarget=0;fillColor=none;points=[[0,0.5],[1,0.5]];portConstraint=eastwest;fontSize=16;" vertex="1" parent="6YKw9iNjO2KrYBKUbxQq-2">
          <mxGeometry y="120" width="200" height="40" as="geometry" />
        </mxCell>
        <mxCell id="6YKw9iNjO2KrYBKUbxQq-16" style="shape=partialRectangle;html=1;whiteSpace=wrap;connectable=0;strokeColor=inherit;overflow=hidden;fillColor=none;top=0;left=0;bottom=0;right=0;pointerEvents=1;fontSize=16;" vertex="1" parent="6YKw9iNjO2KrYBKUbxQq-15">
          <mxGeometry width="40" height="40" as="geometry">
            <mxRectangle width="40" height="40" as="alternateBounds" />
          </mxGeometry>
        </mxCell>
        <mxCell id="6YKw9iNjO2KrYBKUbxQq-17" style="shape=partialRectangle;html=1;whiteSpace=wrap;connectable=0;strokeColor=inherit;overflow=hidden;fillColor=none;top=0;left=0;bottom=0;right=0;pointerEvents=1;fontSize=16;" vertex="1" parent="6YKw9iNjO2KrYBKUbxQq-15">
          <mxGeometry x="40" width="40" height="40" as="geometry">
            <mxRectangle width="40" height="40" as="alternateBounds" />
          </mxGeometry>
        </mxCell>
        <mxCell id="6YKw9iNjO2KrYBKUbxQq-18" style="shape=partialRectangle;html=1;whiteSpace=wrap;connectable=0;strokeColor=inherit;overflow=hidden;fillColor=none;top=0;left=0;bottom=0;right=0;pointerEvents=1;fontSize=16;" vertex="1" parent="6YKw9iNjO2KrYBKUbxQq-15">
          <mxGeometry x="80" width="40" height="40" as="geometry">
            <mxRectangle width="40" height="40" as="alternateBounds" />
          </mxGeometry>
        </mxCell>
        <mxCell id="6YKw9iNjO2KrYBKUbxQq-26" style="shape=partialRectangle;html=1;whiteSpace=wrap;connectable=0;strokeColor=inherit;overflow=hidden;fillColor=none;top=0;left=0;bottom=0;right=0;pointerEvents=1;fontSize=16;" vertex="1" parent="6YKw9iNjO2KrYBKUbxQq-15">
          <mxGeometry x="120" width="40" height="40" as="geometry">
            <mxRectangle width="40" height="40" as="alternateBounds" />
          </mxGeometry>
        </mxCell>
        <mxCell id="6YKw9iNjO2KrYBKUbxQq-31" style="shape=partialRectangle;html=1;whiteSpace=wrap;connectable=0;strokeColor=inherit;overflow=hidden;fillColor=none;top=0;left=0;bottom=0;right=0;pointerEvents=1;fontSize=16;" vertex="1" parent="6YKw9iNjO2KrYBKUbxQq-15">
          <mxGeometry x="160" width="40" height="40" as="geometry">
            <mxRectangle width="40" height="40" as="alternateBounds" />
          </mxGeometry>
        </mxCell>
        <mxCell id="6YKw9iNjO2KrYBKUbxQq-19" style="shape=tableRow;horizontal=0;startSize=0;swimlaneHead=0;swimlaneBody=0;strokeColor=inherit;top=0;left=0;bottom=0;right=0;collapsible=0;dropTarget=0;fillColor=none;points=[[0,0.5],[1,0.5]];portConstraint=eastwest;fontSize=16;" vertex="1" parent="6YKw9iNjO2KrYBKUbxQq-2">
          <mxGeometry y="160" width="200" height="40" as="geometry" />
        </mxCell>
        <mxCell id="6YKw9iNjO2KrYBKUbxQq-20" style="shape=partialRectangle;html=1;whiteSpace=wrap;connectable=0;strokeColor=inherit;overflow=hidden;fillColor=none;top=0;left=0;bottom=0;right=0;pointerEvents=1;fontSize=16;" vertex="1" parent="6YKw9iNjO2KrYBKUbxQq-19">
          <mxGeometry width="40" height="40" as="geometry">
            <mxRectangle width="40" height="40" as="alternateBounds" />
          </mxGeometry>
        </mxCell>
        <mxCell id="6YKw9iNjO2KrYBKUbxQq-21" style="shape=partialRectangle;html=1;whiteSpace=wrap;connectable=0;strokeColor=inherit;overflow=hidden;fillColor=none;top=0;left=0;bottom=0;right=0;pointerEvents=1;fontSize=16;" vertex="1" parent="6YKw9iNjO2KrYBKUbxQq-19">
          <mxGeometry x="40" width="40" height="40" as="geometry">
            <mxRectangle width="40" height="40" as="alternateBounds" />
          </mxGeometry>
        </mxCell>
        <mxCell id="6YKw9iNjO2KrYBKUbxQq-22" style="shape=partialRectangle;html=1;whiteSpace=wrap;connectable=0;strokeColor=inherit;overflow=hidden;fillColor=none;top=0;left=0;bottom=0;right=0;pointerEvents=1;fontSize=16;" vertex="1" parent="6YKw9iNjO2KrYBKUbxQq-19">
          <mxGeometry x="80" width="40" height="40" as="geometry">
            <mxRectangle width="40" height="40" as="alternateBounds" />
          </mxGeometry>
        </mxCell>
        <mxCell id="6YKw9iNjO2KrYBKUbxQq-27" style="shape=partialRectangle;html=1;whiteSpace=wrap;connectable=0;strokeColor=inherit;overflow=hidden;fillColor=none;top=0;left=0;bottom=0;right=0;pointerEvents=1;fontSize=16;" vertex="1" parent="6YKw9iNjO2KrYBKUbxQq-19">
          <mxGeometry x="120" width="40" height="40" as="geometry">
            <mxRectangle width="40" height="40" as="alternateBounds" />
          </mxGeometry>
        </mxCell>
        <mxCell id="6YKw9iNjO2KrYBKUbxQq-32" style="shape=partialRectangle;html=1;whiteSpace=wrap;connectable=0;strokeColor=inherit;overflow=hidden;fillColor=none;top=0;left=0;bottom=0;right=0;pointerEvents=1;fontSize=16;" vertex="1" parent="6YKw9iNjO2KrYBKUbxQq-19">
          <mxGeometry x="160" width="40" height="40" as="geometry">
            <mxRectangle width="40" height="40" as="alternateBounds" />
          </mxGeometry>
        </mxCell>
        <mxCell id="6YKw9iNjO2KrYBKUbxQq-80" style="shape=tableRow;horizontal=0;startSize=0;swimlaneHead=0;swimlaneBody=0;strokeColor=inherit;top=0;left=0;bottom=0;right=0;collapsible=0;dropTarget=0;fillColor=none;points=[[0,0.5],[1,0.5]];portConstraint=eastwest;fontSize=16;" vertex="1" parent="6YKw9iNjO2KrYBKUbxQq-2">
          <mxGeometry y="200" width="200" height="40" as="geometry" />
        </mxCell>
        <mxCell id="6YKw9iNjO2KrYBKUbxQq-81" style="shape=partialRectangle;html=1;whiteSpace=wrap;connectable=0;strokeColor=inherit;overflow=hidden;fillColor=none;top=0;left=0;bottom=0;right=0;pointerEvents=1;fontSize=16;" vertex="1" parent="6YKw9iNjO2KrYBKUbxQq-80">
          <mxGeometry width="40" height="40" as="geometry">
            <mxRectangle width="40" height="40" as="alternateBounds" />
          </mxGeometry>
        </mxCell>
        <mxCell id="6YKw9iNjO2KrYBKUbxQq-82" style="shape=partialRectangle;html=1;whiteSpace=wrap;connectable=0;strokeColor=inherit;overflow=hidden;fillColor=none;top=0;left=0;bottom=0;right=0;pointerEvents=1;fontSize=16;" vertex="1" parent="6YKw9iNjO2KrYBKUbxQq-80">
          <mxGeometry x="40" width="40" height="40" as="geometry">
            <mxRectangle width="40" height="40" as="alternateBounds" />
          </mxGeometry>
        </mxCell>
        <mxCell id="6YKw9iNjO2KrYBKUbxQq-83" style="shape=partialRectangle;html=1;whiteSpace=wrap;connectable=0;strokeColor=inherit;overflow=hidden;fillColor=none;top=0;left=0;bottom=0;right=0;pointerEvents=1;fontSize=16;" vertex="1" parent="6YKw9iNjO2KrYBKUbxQq-80">
          <mxGeometry x="80" width="40" height="40" as="geometry">
            <mxRectangle width="40" height="40" as="alternateBounds" />
          </mxGeometry>
        </mxCell>
        <mxCell id="6YKw9iNjO2KrYBKUbxQq-84" style="shape=partialRectangle;html=1;whiteSpace=wrap;connectable=0;strokeColor=inherit;overflow=hidden;fillColor=none;top=0;left=0;bottom=0;right=0;pointerEvents=1;fontSize=16;" vertex="1" parent="6YKw9iNjO2KrYBKUbxQq-80">
          <mxGeometry x="120" width="40" height="40" as="geometry">
            <mxRectangle width="40" height="40" as="alternateBounds" />
          </mxGeometry>
        </mxCell>
        <mxCell id="6YKw9iNjO2KrYBKUbxQq-85" style="shape=partialRectangle;html=1;whiteSpace=wrap;connectable=0;strokeColor=inherit;overflow=hidden;fillColor=none;top=0;left=0;bottom=0;right=0;pointerEvents=1;fontSize=16;" vertex="1" parent="6YKw9iNjO2KrYBKUbxQq-80">
          <mxGeometry x="160" width="40" height="40" as="geometry">
            <mxRectangle width="40" height="40" as="alternateBounds" />
          </mxGeometry>
        </mxCell>
        <mxCell id="6YKw9iNjO2KrYBKUbxQq-36" value="" style="shape=table;startSize=0;container=1;collapsible=0;childLayout=tableLayout;fontSize=16;fillColor=#f8cecc;strokeColor=#b85450;" vertex="1" parent="1">
          <mxGeometry x="460" y="445" width="300" height="35" as="geometry" />
        </mxCell>
        <mxCell id="6YKw9iNjO2KrYBKUbxQq-37" value="" style="shape=tableRow;horizontal=0;startSize=0;swimlaneHead=0;swimlaneBody=0;strokeColor=inherit;top=0;left=0;bottom=0;right=0;collapsible=0;dropTarget=0;fillColor=none;points=[[0,0.5],[1,0.5]];portConstraint=eastwest;fontSize=16;" vertex="1" parent="6YKw9iNjO2KrYBKUbxQq-36">
          <mxGeometry width="300" height="35" as="geometry" />
        </mxCell>
        <mxCell id="6YKw9iNjO2KrYBKUbxQq-38" value="" style="shape=partialRectangle;html=1;whiteSpace=wrap;connectable=0;strokeColor=inherit;overflow=hidden;fillColor=none;top=0;left=0;bottom=0;right=0;pointerEvents=1;fontSize=16;" vertex="1" parent="6YKw9iNjO2KrYBKUbxQq-37">
          <mxGeometry width="43" height="35" as="geometry">
            <mxRectangle width="43" height="35" as="alternateBounds" />
          </mxGeometry>
        </mxCell>
        <mxCell id="6YKw9iNjO2KrYBKUbxQq-39" value="" style="shape=partialRectangle;html=1;whiteSpace=wrap;connectable=0;strokeColor=inherit;overflow=hidden;fillColor=none;top=0;left=0;bottom=0;right=0;pointerEvents=1;fontSize=16;" vertex="1" parent="6YKw9iNjO2KrYBKUbxQq-37">
          <mxGeometry x="43" width="43" height="35" as="geometry">
            <mxRectangle width="43" height="35" as="alternateBounds" />
          </mxGeometry>
        </mxCell>
        <mxCell id="6YKw9iNjO2KrYBKUbxQq-40" value="" style="shape=partialRectangle;html=1;whiteSpace=wrap;connectable=0;strokeColor=inherit;overflow=hidden;fillColor=none;top=0;left=0;bottom=0;right=0;pointerEvents=1;fontSize=16;" vertex="1" parent="6YKw9iNjO2KrYBKUbxQq-37">
          <mxGeometry x="86" width="43" height="35" as="geometry">
            <mxRectangle width="43" height="35" as="alternateBounds" />
          </mxGeometry>
        </mxCell>
        <mxCell id="6YKw9iNjO2KrYBKUbxQq-49" style="shape=partialRectangle;html=1;whiteSpace=wrap;connectable=0;strokeColor=inherit;overflow=hidden;fillColor=none;top=0;left=0;bottom=0;right=0;pointerEvents=1;fontSize=16;" vertex="1" parent="6YKw9iNjO2KrYBKUbxQq-37">
          <mxGeometry x="129" width="41" height="35" as="geometry">
            <mxRectangle width="41" height="35" as="alternateBounds" />
          </mxGeometry>
        </mxCell>
        <mxCell id="6YKw9iNjO2KrYBKUbxQq-50" style="shape=partialRectangle;html=1;whiteSpace=wrap;connectable=0;strokeColor=inherit;overflow=hidden;fillColor=none;top=0;left=0;bottom=0;right=0;pointerEvents=1;fontSize=16;" vertex="1" parent="6YKw9iNjO2KrYBKUbxQq-37">
          <mxGeometry x="170" width="44" height="35" as="geometry">
            <mxRectangle width="44" height="35" as="alternateBounds" />
          </mxGeometry>
        </mxCell>
        <mxCell id="6YKw9iNjO2KrYBKUbxQq-51" style="shape=partialRectangle;html=1;whiteSpace=wrap;connectable=0;strokeColor=inherit;overflow=hidden;fillColor=none;top=0;left=0;bottom=0;right=0;pointerEvents=1;fontSize=16;" vertex="1" parent="6YKw9iNjO2KrYBKUbxQq-37">
          <mxGeometry x="214" width="43" height="35" as="geometry">
            <mxRectangle width="43" height="35" as="alternateBounds" />
          </mxGeometry>
        </mxCell>
        <mxCell id="6YKw9iNjO2KrYBKUbxQq-52" style="shape=partialRectangle;html=1;whiteSpace=wrap;connectable=0;strokeColor=inherit;overflow=hidden;fillColor=none;top=0;left=0;bottom=0;right=0;pointerEvents=1;fontSize=16;" vertex="1" parent="6YKw9iNjO2KrYBKUbxQq-37">
          <mxGeometry x="257" width="43" height="35" as="geometry">
            <mxRectangle width="43" height="35" as="alternateBounds" />
          </mxGeometry>
        </mxCell>
        <mxCell id="6YKw9iNjO2KrYBKUbxQq-53" value="Mesh Batch" style="rounded=0;whiteSpace=wrap;html=1;fillColor=#d5e8d4;strokeColor=#82b366;" vertex="1" parent="1">
          <mxGeometry x="490" y="520" width="80" height="50" as="geometry" />
        </mxCell>
        <mxCell id="6YKw9iNjO2KrYBKUbxQq-54" value="Mesh Batch" style="rounded=0;whiteSpace=wrap;html=1;fillColor=#f8cecc;strokeColor=#b85450;" vertex="1" parent="1">
          <mxGeometry x="610" y="520" width="80" height="50" as="geometry" />
        </mxCell>
        <mxCell id="6YKw9iNjO2KrYBKUbxQq-57" value="" style="endArrow=none;dashed=1;html=1;rounded=0;entryX=-0.002;entryY=1.125;entryDx=0;entryDy=0;entryPerimeter=0;exitX=0.002;exitY=0.05;exitDx=0;exitDy=0;exitPerimeter=0;" edge="1" parent="1" target="6YKw9iNjO2KrYBKUbxQq-37">
          <mxGeometry width="50" height="50" relative="1" as="geometry">
            <mxPoint x="460.5999999999999" y="702" as="sourcePoint" />
            <mxPoint x="440" y="590" as="targetPoint" />
          </mxGeometry>
        </mxCell>
        <mxCell id="6YKw9iNjO2KrYBKUbxQq-67" value="" style="endArrow=none;dashed=1;html=1;rounded=0;entryX=0.433;entryY=1.042;entryDx=0;entryDy=0;entryPerimeter=0;exitX=0.429;exitY=0.033;exitDx=0;exitDy=0;exitPerimeter=0;" edge="1" parent="1" target="6YKw9iNjO2KrYBKUbxQq-37">
          <mxGeometry width="50" height="50" relative="1" as="geometry">
            <mxPoint x="588.6999999999998" y="701.3199999999999" as="sourcePoint" />
            <mxPoint x="469" y="500" as="targetPoint" />
          </mxGeometry>
        </mxCell>
        <mxCell id="6YKw9iNjO2KrYBKUbxQq-68" value="" style="endArrow=none;dashed=1;html=1;rounded=0;entryX=0.433;entryY=1.042;entryDx=0;entryDy=0;entryPerimeter=0;exitX=0.429;exitY=0.033;exitDx=0;exitDy=0;exitPerimeter=0;" edge="1" parent="1">
          <mxGeometry width="50" height="50" relative="1" as="geometry">
            <mxPoint x="720" y="700" as="sourcePoint" />
            <mxPoint x="721" y="486" as="targetPoint" />
          </mxGeometry>
        </mxCell>
        <mxCell id="6YKw9iNjO2KrYBKUbxQq-69" value="" style="shape=table;startSize=0;container=1;collapsible=0;childLayout=tableLayout;fontSize=16;" vertex="1" parent="1">
          <mxGeometry x="460" y="760" width="300" height="30" as="geometry" />
        </mxCell>
        <mxCell id="6YKw9iNjO2KrYBKUbxQq-70" value="" style="shape=tableRow;horizontal=0;startSize=0;swimlaneHead=0;swimlaneBody=0;strokeColor=inherit;top=0;left=0;bottom=0;right=0;collapsible=0;dropTarget=0;fillColor=none;points=[[0,0.5],[1,0.5]];portConstraint=eastwest;fontSize=16;" vertex="1" parent="6YKw9iNjO2KrYBKUbxQq-69">
          <mxGeometry width="300" height="30" as="geometry" />
        </mxCell>
        <mxCell id="6YKw9iNjO2KrYBKUbxQq-71" value="" style="shape=partialRectangle;html=1;whiteSpace=wrap;connectable=0;strokeColor=#82b366;overflow=hidden;fillColor=#d5e8d4;top=0;left=0;bottom=0;right=0;pointerEvents=1;fontSize=16;" vertex="1" parent="6YKw9iNjO2KrYBKUbxQq-70">
          <mxGeometry width="43" height="30" as="geometry">
            <mxRectangle width="43" height="30" as="alternateBounds" />
          </mxGeometry>
        </mxCell>
        <mxCell id="6YKw9iNjO2KrYBKUbxQq-72" value="" style="shape=partialRectangle;html=1;whiteSpace=wrap;connectable=0;strokeColor=#82b366;overflow=hidden;fillColor=#d5e8d4;top=0;left=0;bottom=0;right=0;pointerEvents=1;fontSize=16;" vertex="1" parent="6YKw9iNjO2KrYBKUbxQq-70">
          <mxGeometry x="43" width="43" height="30" as="geometry">
            <mxRectangle width="43" height="30" as="alternateBounds" />
          </mxGeometry>
        </mxCell>
        <mxCell id="6YKw9iNjO2KrYBKUbxQq-73" value="" style="shape=partialRectangle;html=1;whiteSpace=wrap;connectable=0;strokeColor=#b85450;overflow=hidden;fillColor=#f8cecc;top=0;left=0;bottom=0;right=0;pointerEvents=1;fontSize=16;" vertex="1" parent="6YKw9iNjO2KrYBKUbxQq-70">
          <mxGeometry x="86" width="43" height="30" as="geometry">
            <mxRectangle width="43" height="30" as="alternateBounds" />
          </mxGeometry>
        </mxCell>
        <mxCell id="6YKw9iNjO2KrYBKUbxQq-74" style="shape=partialRectangle;html=1;whiteSpace=wrap;connectable=0;strokeColor=#b85450;overflow=hidden;fillColor=#f8cecc;top=0;left=0;bottom=0;right=0;pointerEvents=1;fontSize=16;" vertex="1" parent="6YKw9iNjO2KrYBKUbxQq-70">
          <mxGeometry x="129" width="41" height="30" as="geometry">
            <mxRectangle width="41" height="30" as="alternateBounds" />
          </mxGeometry>
        </mxCell>
        <mxCell id="6YKw9iNjO2KrYBKUbxQq-75" style="shape=partialRectangle;html=1;whiteSpace=wrap;connectable=0;strokeColor=#b85450;overflow=hidden;fillColor=#f8cecc;top=0;left=0;bottom=0;right=0;pointerEvents=1;fontSize=16;" vertex="1" parent="6YKw9iNjO2KrYBKUbxQq-70">
          <mxGeometry x="170" width="44" height="30" as="geometry">
            <mxRectangle width="44" height="30" as="alternateBounds" />
          </mxGeometry>
        </mxCell>
        <mxCell id="6YKw9iNjO2KrYBKUbxQq-76" style="shape=partialRectangle;html=1;whiteSpace=wrap;connectable=0;strokeColor=#b85450;overflow=hidden;fillColor=#f8cecc;top=0;left=0;bottom=0;right=0;pointerEvents=1;fontSize=16;" vertex="1" parent="6YKw9iNjO2KrYBKUbxQq-70">
          <mxGeometry x="214" width="43" height="30" as="geometry">
            <mxRectangle width="43" height="30" as="alternateBounds" />
          </mxGeometry>
        </mxCell>
        <mxCell id="6YKw9iNjO2KrYBKUbxQq-77" style="shape=partialRectangle;html=1;whiteSpace=wrap;connectable=0;strokeColor=#b85450;overflow=hidden;fillColor=#f8cecc;top=0;left=0;bottom=0;right=0;pointerEvents=1;fontSize=16;" vertex="1" parent="6YKw9iNjO2KrYBKUbxQq-70">
          <mxGeometry x="257" width="43" height="30" as="geometry">
            <mxRectangle width="43" height="30" as="alternateBounds" />
          </mxGeometry>
        </mxCell>
        <mxCell id="6YKw9iNjO2KrYBKUbxQq-78" value="" style="shape=curlyBracket;whiteSpace=wrap;html=1;rounded=1;labelPosition=left;verticalLabelPosition=middle;align=right;verticalAlign=middle;" vertex="1" parent="1">
          <mxGeometry x="160" y="700" width="20" height="40" as="geometry" />
        </mxCell>
        <mxCell id="6YKw9iNjO2KrYBKUbxQq-79" value="" style="shape=curlyBracket;whiteSpace=wrap;html=1;rounded=1;labelPosition=left;verticalLabelPosition=middle;align=right;verticalAlign=middle;" vertex="1" parent="1">
          <mxGeometry x="160" y="500" width="20" height="120" as="geometry" />
        </mxCell>
        <mxCell id="6YKw9iNjO2KrYBKUbxQq-86" value="" style="shape=curlyBracket;whiteSpace=wrap;html=1;rounded=1;labelPosition=left;verticalLabelPosition=middle;align=right;verticalAlign=middle;" vertex="1" parent="1">
          <mxGeometry x="160" y="620" width="20" height="80" as="geometry" />
        </mxCell>
        <mxCell id="6YKw9iNjO2KrYBKUbxQq-88" value="Level 7" style="text;html=1;align=center;verticalAlign=middle;whiteSpace=wrap;rounded=0;fontSize=15;" vertex="1" parent="1">
          <mxGeometry x="80" y="640" width="60" height="30" as="geometry" />
        </mxCell>
        <mxCell id="6YKw9iNjO2KrYBKUbxQq-89" value="Level 8" style="text;html=1;align=center;verticalAlign=middle;whiteSpace=wrap;rounded=0;fontSize=15;" vertex="1" parent="1">
          <mxGeometry x="80" y="705" width="60" height="30" as="geometry" />
        </mxCell>
        <mxCell id="6YKw9iNjO2KrYBKUbxQq-90" value="" style="shape=curlyBracket;whiteSpace=wrap;html=1;rounded=1;labelPosition=left;verticalLabelPosition=middle;align=right;verticalAlign=middle;" vertex="1" parent="1">
          <mxGeometry x="440" y="445" width="20" height="35" as="geometry" />
        </mxCell>
        <mxCell id="6YKw9iNjO2KrYBKUbxQq-91" value="Scene Commands Queue" style="text;html=1;align=center;verticalAlign=middle;whiteSpace=wrap;rounded=0;fontSize=15;" vertex="1" parent="1">
          <mxGeometry x="220" y="445" width="194" height="30" as="geometry" />
        </mxCell>
        <mxCell id="6YKw9iNjO2KrYBKUbxQq-92" value="" style="shape=curlyBracket;whiteSpace=wrap;html=1;rounded=1;labelPosition=left;verticalLabelPosition=middle;align=right;verticalAlign=middle;" vertex="1" parent="1">
          <mxGeometry x="440" y="760" width="20" height="30" as="geometry" />
        </mxCell>
        <mxCell id="6YKw9iNjO2KrYBKUbxQq-93" value="Culled Commands Queue" style="text;html=1;align=center;verticalAlign=middle;whiteSpace=wrap;rounded=0;fontSize=15;" vertex="1" parent="1">
          <mxGeometry x="240" y="760" width="184" height="30" as="geometry" />
        </mxCell>
        <mxCell id="6YKw9iNjO2KrYBKUbxQq-95" value="Mesh Batch" style="rounded=0;whiteSpace=wrap;html=1;fillColor=#f8cecc;strokeColor=#b85450;" vertex="1" parent="1">
          <mxGeometry x="490" y="630" width="80" height="50" as="geometry" />
        </mxCell>
        <mxCell id="6YKw9iNjO2KrYBKUbxQq-96" value="Mesh Batch" style="rounded=0;whiteSpace=wrap;html=1;fillColor=#d5e8d4;strokeColor=#82b366;" vertex="1" parent="1">
          <mxGeometry x="610" y="630" width="80" height="50" as="geometry" />
        </mxCell>
        <mxCell id="6YKw9iNjO2KrYBKUbxQq-97" value="" style="endArrow=classic;html=1;rounded=0;entryX=0;entryY=0.5;entryDx=0;entryDy=0;strokeColor=#80FF00;" edge="1" parent="1" target="6YKw9iNjO2KrYBKUbxQq-53">
          <mxGeometry width="50" height="50" relative="1" as="geometry">
            <mxPoint x="200" y="560" as="sourcePoint" />
            <mxPoint x="440" y="590" as="targetPoint" />
          </mxGeometry>
        </mxCell>
        <mxCell id="6YKw9iNjO2KrYBKUbxQq-98" value="" style="endArrow=classic;html=1;rounded=0;strokeColor=#FF0000;" edge="1" parent="1" target="6YKw9iNjO2KrYBKUbxQq-54">
          <mxGeometry width="50" height="50" relative="1" as="geometry">
            <mxPoint x="210" y="570" as="sourcePoint" />
            <mxPoint x="500" y="555" as="targetPoint" />
          </mxGeometry>
        </mxCell>
        <mxCell id="6YKw9iNjO2KrYBKUbxQq-99" value="" style="endArrow=classic;html=1;rounded=0;entryX=0;entryY=0.5;entryDx=0;entryDy=0;strokeColor=#FF0000;" edge="1" parent="1">
          <mxGeometry width="50" height="50" relative="1" as="geometry">
            <mxPoint x="200" y="672.5" as="sourcePoint" />
            <mxPoint x="490" y="657.5" as="targetPoint" />
          </mxGeometry>
        </mxCell>
        <mxCell id="6YKw9iNjO2KrYBKUbxQq-100" value="" style="endArrow=classic;html=1;rounded=0;entryX=0;entryY=0.5;entryDx=0;entryDy=0;strokeColor=#80FF00;" edge="1" parent="1" target="6YKw9iNjO2KrYBKUbxQq-96">
          <mxGeometry width="50" height="50" relative="1" as="geometry">
            <mxPoint x="210" y="682.5" as="sourcePoint" />
            <mxPoint x="500" y="667.5" as="targetPoint" />
          </mxGeometry>
        </mxCell>
        <mxCell id="6YKw9iNjO2KrYBKUbxQq-101" value="" style="endArrow=classic;html=1;rounded=0;exitX=0.5;exitY=1;exitDx=0;exitDy=0;entryX=0.073;entryY=0.044;entryDx=0;entryDy=0;entryPerimeter=0;" edge="1" parent="1" source="6YKw9iNjO2KrYBKUbxQq-53" target="6YKw9iNjO2KrYBKUbxQq-70">
          <mxGeometry width="50" height="50" relative="1" as="geometry">
            <mxPoint x="390" y="640" as="sourcePoint" />
            <mxPoint x="440" y="590" as="targetPoint" />
          </mxGeometry>
        </mxCell>
        <mxCell id="6YKw9iNjO2KrYBKUbxQq-102" value="" style="endArrow=classic;html=1;rounded=0;exitX=0.5;exitY=1;exitDx=0;exitDy=0;entryX=0.211;entryY=-0.044;entryDx=0;entryDy=0;entryPerimeter=0;" edge="1" parent="1" target="6YKw9iNjO2KrYBKUbxQq-70">
          <mxGeometry width="50" height="50" relative="1" as="geometry">
            <mxPoint x="648" y="680" as="sourcePoint" />
            <mxPoint x="600" y="871" as="targetPoint" />
          </mxGeometry>
        </mxCell>
        <mxCell id="6YKw9iNjO2KrYBKUbxQq-103" value="" style="endArrow=classic;html=1;rounded=0;entryX=0.289;entryY=1.022;entryDx=0;entryDy=0;entryPerimeter=0;exitX=0.5;exitY=0;exitDx=0;exitDy=0;" edge="1" parent="1" source="6YKw9iNjO2KrYBKUbxQq-104" target="6YKw9iNjO2KrYBKUbxQq-70">
          <mxGeometry width="50" height="50" relative="1" as="geometry">
            <mxPoint x="510" y="830" as="sourcePoint" />
            <mxPoint x="550" y="790" as="targetPoint" />
          </mxGeometry>
        </mxCell>
        <mxCell id="6YKw9iNjO2KrYBKUbxQq-104" value="Counter ++" style="rounded=0;whiteSpace=wrap;html=1;fontSize=15;fillColor=#e1d5e7;strokeColor=#9673a6;" vertex="1" parent="1">
          <mxGeometry x="500" y="830" width="100" height="40" as="geometry" />
        </mxCell>
        <mxCell id="6YKw9iNjO2KrYBKUbxQq-105" value="Level 6" style="text;html=1;align=center;verticalAlign=middle;whiteSpace=wrap;rounded=0;fontSize=15;" vertex="1" parent="1">
          <mxGeometry x="90" y="545" width="60" height="30" as="geometry" />
        </mxCell>
      </root>
    </mxGraphModel>
  </diagram>
</mxfile>
